<?xml version="1.0" encoding="utf-8"?>
<!-- Generator: Adobe Illustrator 18.0.0, SVG Export Plug-In . SVG Version: 6.00 Build 0)  -->
<!DOCTYPE svg PUBLIC "-//W3C//DTD SVG 1.1//EN" "http://www.w3.org/Graphics/SVG/1.1/DTD/svg11.dtd">
<svg version="1.1" id="Camada_1" xmlns="http://www.w3.org/2000/svg" xmlns:xlink="http://www.w3.org/1999/xlink" x="0px" y="0px"
	 viewBox="0 0 90 27" enable-background="new 0 0 90 27" xml:space="preserve">
<path fill-rule="evenodd" clip-rule="evenodd" fill="#BE2B36" d="M13.5,0.2h63C84,0.2,90,6.2,90,13.7c0,7.5-6,13.5-13.5,13.5h-63
	C6,27.2,0,21.1,0,13.7C0,6.2,6,0.2,13.5,0.2z"/>
<g>
	<path fill="#FFFFFF" d="M12.7,10.6c0.1,0,0.2,0,0.4,0c0.1,0,0.3,0,0.4,0c0.2,0,0.3,0,0.4,0c0.1,0,0.3,0,0.4,0l0.9,6.2l1.9-3.9
		c0.2-0.5,0.4-0.9,0.6-1.3c0.1-0.4,0.2-0.7,0.2-0.9v-0.1c0.1,0,0.3,0,0.4,0c0.1,0,0.3,0,0.4,0c0.1,0,0.3,0,0.4,0c0.1,0,0.3,0,0.4,0
		v0.1c0,0.2,0,0.3-0.1,0.5c0,0.2-0.1,0.4-0.3,0.7c-0.6,1.1-1.2,2.2-1.7,3.2c-0.6,1.1-1.2,2.1-1.8,3.2c-0.3,0-0.5,0-0.8,0
		c-0.1,0-0.2,0-0.4,0c-0.2,0-0.3,0-0.4,0L12.7,10.6z"/>
	<path fill="#FFFFFF" d="M20.3,15.3c0,0.7,0.2,1.2,0.5,1.5s0.8,0.5,1.4,0.5c0.4,0,0.8,0,1.1-0.1c0.4-0.1,0.7-0.2,1-0.3
		c0.1,0.1,0.2,0.3,0.2,0.5s0.1,0.4,0.1,0.6c-0.2,0.1-0.3,0.1-0.5,0.2s-0.4,0.1-0.7,0.2c-0.2,0-0.5,0.1-0.7,0.1c-0.2,0-0.5,0-0.7,0
		c-0.6,0-1.1-0.1-1.5-0.2c-0.4-0.2-0.7-0.4-1-0.6c-0.3-0.3-0.4-0.6-0.6-1s-0.2-0.8-0.2-1.2c0-0.6,0.1-1.2,0.3-1.8
		c0.2-0.6,0.5-1.1,0.9-1.6c0.4-0.5,0.8-0.9,1.4-1.1c0.5-0.3,1.1-0.4,1.8-0.4s1.2,0.2,1.6,0.5c0.4,0.3,0.6,0.8,0.6,1.3
		c0,0.4-0.1,0.8-0.3,1.1s-0.5,0.6-0.9,0.8s-0.8,0.4-1.3,0.6c-0.5,0.1-1.1,0.3-1.7,0.4L20.3,15.3z M21.2,14c0.5-0.1,0.9-0.2,1.3-0.3
		c0.3-0.1,0.6-0.2,0.8-0.4c0.2-0.1,0.3-0.3,0.4-0.4c0.1-0.1,0.1-0.3,0.1-0.5c0-0.2-0.1-0.4-0.2-0.6c-0.2-0.1-0.4-0.2-0.7-0.2
		c-0.3,0-0.6,0.1-0.9,0.2c-0.3,0.1-0.5,0.3-0.7,0.6c-0.2,0.2-0.4,0.5-0.5,0.8c-0.1,0.3-0.3,0.6-0.3,0.9L21.2,14z"/>
	<path fill="#FFFFFF" d="M25,18.3c0.1-0.6,0.2-1.3,0.4-2c0.1-0.7,0.3-1.4,0.4-2c0.1-0.7,0.2-1.3,0.3-1.8c0.1-0.5,0.1-1,0.1-1.3
		c0-0.1,0-0.2,0-0.3c0-0.1,0-0.2,0-0.3c0.1,0,0.2,0,0.4,0c0.1,0,0.3,0,0.4,0c0.1,0,0.2,0,0.3,0c0.1,0,0.2,0,0.3,0c0,0.1,0,0.2,0,0.3
		c0,0.1,0,0.2,0,0.4c0,0.2,0,0.5,0,0.7c0.1-0.2,0.3-0.4,0.4-0.5c0.2-0.2,0.3-0.3,0.5-0.4c0.2-0.1,0.4-0.2,0.6-0.3
		c0.2-0.1,0.5-0.1,0.8-0.1c0.1,0,0.2,0,0.3,0c0.1,0,0.2,0,0.2,0c0,0.2,0,0.4-0.1,0.7c0,0.3-0.1,0.5-0.2,0.7c0,0-0.1,0-0.2,0
		c-0.1,0-0.2,0-0.2,0c-0.7,0-1.2,0.2-1.6,0.7s-0.7,1.2-0.9,2.2l-0.6,3.5c-0.2,0-0.4,0-0.6,0h-0.4L25,18.3z"/>
	<path fill="#FFFFFF" d="M32.2,13.9c0.1-0.6,0.2-1.1,0.3-1.5c0.1-0.4,0.1-0.8,0.1-1.1c0-0.1,0-0.2,0-0.3c0-0.1,0-0.2,0-0.3
		c0.1,0,0.2,0,0.4,0s0.2,0,0.4,0c0.1,0,0.2,0,0.3,0s0.2,0,0.4,0c0,0.1,0,0.2,0,0.3c0,0.1,0,0.2,0,0.4c0,0.1,0,0.2,0,0.3
		c0,0.1,0,0.2,0,0.3c0.3-0.4,0.6-0.8,1-1.1c0.4-0.3,1-0.4,1.6-0.4c0.7,0,1.2,0.2,1.6,0.7c0.4,0.5,0.6,1.2,0.6,2c0,0.7-0.1,1.4-0.3,2
		c-0.2,0.6-0.5,1.2-1,1.7s-1,0.9-1.6,1.2c-0.6,0.3-1.4,0.4-2.2,0.4c-0.2,0-0.3,0-0.4,0s-0.2,0-0.4,0l-0.6,3.4c-0.1,0-0.3,0-0.4,0
		c-0.1,0-0.3,0-0.4,0c-0.1,0-0.2,0-0.4,0c-0.1,0-0.3,0-0.4,0L32.2,13.9z M33.1,17.2c0.1,0,0.2,0.1,0.4,0.1c0.2,0,0.3,0,0.4,0
		c0.5,0,0.9-0.1,1.3-0.3c0.4-0.2,0.7-0.5,1-0.8c0.3-0.3,0.5-0.7,0.7-1.2s0.2-1,0.2-1.5s-0.1-1-0.3-1.3c-0.2-0.3-0.6-0.5-1-0.5
		c-0.3,0-0.5,0.1-0.8,0.2c-0.2,0.1-0.5,0.3-0.7,0.5c-0.2,0.2-0.4,0.6-0.5,0.9c-0.2,0.4-0.3,0.9-0.4,1.4L33.1,17.2z"/>
	<path fill="#FFFFFF" d="M41.7,18.5c-0.9,0-1.6-0.3-2.1-0.8s-0.7-1.2-0.7-2.2c0-0.5,0.1-1.1,0.3-1.7s0.4-1.2,0.8-1.7
		c0.4-0.5,0.8-0.9,1.3-1.2c0.5-0.3,1.2-0.5,1.9-0.5c0.9,0,1.6,0.3,2.1,0.8c0.5,0.5,0.7,1.3,0.7,2.2c0,0.6-0.1,1.1-0.3,1.7
		s-0.4,1.1-0.8,1.6c-0.3,0.5-0.8,0.9-1.3,1.2C43.1,18.3,42.5,18.5,41.7,18.5z M41.9,17.3c0.5,0,0.9-0.1,1.2-0.4
		c0.3-0.3,0.6-0.6,0.8-1s0.4-0.8,0.5-1.3c0.1-0.5,0.1-0.9,0.1-1.3c0-0.6-0.1-1-0.4-1.3s-0.6-0.5-1.1-0.5s-0.9,0.1-1.2,0.4
		c-0.3,0.3-0.6,0.6-0.8,1s-0.4,0.8-0.5,1.3c-0.1,0.5-0.1,0.9-0.1,1.3c0,0.6,0.1,1,0.4,1.3C41,17.2,41.4,17.3,41.9,17.3z"/>
	<path fill="#FFFFFF" d="M45.9,18.3c0.1-0.6,0.2-1.3,0.4-2c0.1-0.7,0.3-1.4,0.4-2c0.1-0.7,0.2-1.3,0.3-1.8c0.1-0.5,0.1-1,0.1-1.3
		c0-0.1,0-0.2,0-0.3c0-0.1,0-0.2,0-0.3c0.1,0,0.2,0,0.4,0c0.1,0,0.3,0,0.4,0c0.1,0,0.2,0,0.3,0c0.1,0,0.2,0,0.3,0c0,0.1,0,0.2,0,0.3
		c0,0.1,0,0.2,0,0.4c0,0.2,0,0.5,0,0.7c0.1-0.2,0.3-0.4,0.4-0.5c0.2-0.2,0.3-0.3,0.5-0.4c0.2-0.1,0.4-0.2,0.6-0.3
		c0.2-0.1,0.5-0.1,0.8-0.1c0.1,0,0.2,0,0.3,0c0.1,0,0.2,0,0.2,0c0,0.2,0,0.4-0.1,0.7c0,0.3-0.1,0.5-0.2,0.7c0,0-0.1,0-0.2,0
		c-0.1,0-0.2,0-0.2,0c-0.7,0-1.2,0.2-1.6,0.7s-0.7,1.2-0.9,2.2l-0.6,3.5c-0.2,0-0.4,0-0.6,0h-0.4L45.9,18.3z"/>
	<path fill="#FFFFFF" d="M51.6,11.8h-1.2c0-0.2,0-0.4,0-0.6c0-0.2,0.1-0.4,0.2-0.6h1.2c0-0.3,0.1-0.5,0.1-0.8C51.9,9.6,52,9.3,52,9
		V8.8c0.2-0.1,0.4-0.2,0.7-0.2c0.3,0,0.5-0.1,0.7-0.1c0,0.1,0,0.2,0,0.3c0,0.1,0,0.2,0,0.3c0,0.3,0,0.7-0.1,1.2l-0.1,0.5h1.9
		c0,0.2,0,0.4,0,0.6c0,0.2-0.1,0.4-0.2,0.6H53l-0.6,3.3c-0.1,0.2-0.1,0.5-0.1,0.7c0,0.2-0.1,0.5-0.1,0.7c0,0.3,0.1,0.5,0.2,0.6
		c0.2,0.1,0.4,0.2,0.6,0.2c0.2,0,0.3,0,0.5,0c0.1,0,0.3-0.1,0.4-0.1c0,0.1,0.1,0.2,0.1,0.3c0,0.1,0,0.3,0,0.4c0,0.1,0,0.1,0,0.2
		c0,0.1,0,0.2,0,0.2c-0.1,0-0.3,0.1-0.5,0.1s-0.4,0.1-0.7,0.1c-0.3,0-0.6,0-0.9-0.1s-0.5-0.1-0.7-0.3c-0.2-0.1-0.3-0.3-0.4-0.5
		c-0.1-0.2-0.2-0.5-0.2-0.8c0-0.2,0-0.4,0.1-0.6c0-0.2,0.1-0.4,0.1-0.7L51.6,11.8z"/>
	<path fill="#FFFFFF" d="M55.7,11.8h-1.2c0-0.2,0-0.4,0-0.6c0-0.2,0.1-0.4,0.2-0.6h1.2l0.1-0.4c0.2-1,0.5-1.8,1-2.3s1.2-0.8,2.1-0.8
		c0.3,0,0.5,0,0.7,0.1c0.2,0,0.4,0.1,0.5,0.1c-0.1,0.3-0.1,0.5-0.2,0.7c-0.1,0.2-0.1,0.4-0.2,0.5c-0.1,0-0.2-0.1-0.3-0.1
		c-0.1,0-0.3,0-0.4,0c-0.2,0-0.4,0-0.6,0.1c-0.2,0.1-0.3,0.1-0.5,0.3c-0.1,0.1-0.3,0.3-0.4,0.6c-0.1,0.2-0.2,0.5-0.2,0.9
		c0,0.1,0,0.1,0,0.2s0,0.1,0,0.2h1.8c0,0.2,0,0.4,0,0.6c0,0.2-0.1,0.4-0.2,0.6h-1.8L56,18.4c-0.1,0.7-0.3,1.2-0.4,1.7
		s-0.4,0.8-0.7,1.1c-0.3,0.3-0.6,0.5-0.9,0.6c-0.3,0.1-0.7,0.2-1.2,0.2c-0.2,0-0.4,0-0.6-0.1s-0.4-0.1-0.5-0.1
		c0-0.2,0.1-0.4,0.2-0.6c0.1-0.2,0.1-0.4,0.2-0.5c0.1,0,0.2,0.1,0.3,0.1c0.1,0,0.3,0,0.4,0c0.2,0,0.4,0,0.6-0.1
		c0.2-0.1,0.3-0.2,0.5-0.4c0.1-0.2,0.3-0.4,0.4-0.8c0.1-0.3,0.2-0.7,0.3-1.3L55.7,11.8z"/>
	<path fill="#FFFFFF" d="M61,18.5c-0.9,0-1.6-0.3-2.1-0.8s-0.7-1.2-0.7-2.2c0-0.5,0.1-1.1,0.3-1.7s0.4-1.2,0.8-1.7
		c0.4-0.5,0.8-0.9,1.3-1.2c0.5-0.3,1.2-0.5,1.9-0.5c0.9,0,1.6,0.3,2.1,0.8c0.5,0.5,0.7,1.3,0.7,2.2c0,0.6-0.1,1.1-0.3,1.7
		s-0.4,1.1-0.8,1.6c-0.3,0.5-0.8,0.9-1.3,1.2C62.4,18.3,61.8,18.5,61,18.5z M61.2,17.3c0.5,0,0.9-0.1,1.2-0.4c0.3-0.3,0.6-0.6,0.8-1
		s0.4-0.8,0.5-1.3c0.1-0.5,0.1-0.9,0.1-1.3c0-0.6-0.1-1-0.4-1.3s-0.6-0.5-1.1-0.5s-0.9,0.1-1.2,0.4c-0.3,0.3-0.6,0.6-0.8,1
		s-0.4,0.8-0.5,1.3c-0.1,0.5-0.1,0.9-0.1,1.3c0,0.6,0.1,1,0.4,1.3C60.4,17.2,60.7,17.3,61.2,17.3z M62.9,7.5c0.2,0,0.3,0,0.5,0
		s0.3,0,0.5,0s0.3,0,0.5,0c0.1,0,0.3,0,0.4,0L63,9.4c-0.1,0-0.2,0-0.4,0c-0.1,0-0.3,0-0.4,0c-0.1,0-0.2,0-0.3,0c-0.1,0-0.2,0-0.4,0
		L62.9,7.5z"/>
	<path fill="#FFFFFF" d="M66.6,10.4c0.1-0.6,0.2-1,0.2-1.4C66.9,8.6,67,8.2,67,7.9c0-0.1,0-0.2,0-0.3c0-0.1,0-0.2,0-0.3
		c0.1,0,0.2,0,0.4,0c0.2,0,0.3,0,0.4,0c0.1,0,0.2,0,0.3,0c0.1,0,0.2,0,0.4,0c0,0.1,0,0.2,0,0.3c0,0.1,0,0.2,0,0.3c0,0.1,0,0.2,0,0.4
		c0,0.2,0,0.3-0.1,0.5c0,0.2,0,0.3-0.1,0.5c0,0.2-0.1,0.4-0.1,0.5l-1.2,6.3c0,0.2,0,0.3,0,0.4c0,0.2,0,0.3,0.1,0.4s0.1,0.2,0.2,0.2
		s0.1,0.1,0.2,0.1s0.2,0,0.2,0c0.1,0,0.2,0,0.3,0c0.1,0,0.2,0,0.3-0.1c0.1,0.3,0.1,0.6,0.1,0.9c0,0,0,0.1,0,0.1c0,0,0,0.1,0,0.1
		c-0.2,0-0.3,0.1-0.5,0.1s-0.4,0-0.6,0c-0.3,0-0.5,0-0.7-0.1c-0.2-0.1-0.4-0.1-0.6-0.3c-0.2-0.1-0.3-0.3-0.4-0.5
		c-0.1-0.2-0.1-0.5-0.1-0.8c0-0.2,0-0.4,0.1-0.6s0.1-0.4,0.1-0.6L66.6,10.4z"/>
	<path fill="#FFFFFF" d="M70,11.8h-0.9c0-0.2,0-0.4,0-0.6c0-0.2,0.1-0.4,0.2-0.6h2.4l-1.4,7.7c-0.1,0-0.2,0-0.4,0
		c-0.1,0-0.3,0-0.4,0s-0.2,0-0.3,0s-0.2,0-0.3,0L70,11.8z M70,9c0-0.3,0-0.6,0.1-0.8s0.1-0.5,0.2-0.8c0.1,0,0.3,0,0.5,0
		c0.2,0,0.3,0,0.4,0s0.3,0,0.4,0c0.2,0,0.3,0,0.4,0c0,0.3,0,0.6-0.1,0.8c-0.1,0.3-0.1,0.5-0.2,0.8c-0.1,0-0.3,0-0.5,0
		c-0.2,0-0.3,0-0.4,0c-0.1,0-0.2,0-0.4,0C70.3,9.1,70.1,9.1,70,9z"/>
	<path fill="#FFFFFF" d="M74.5,18.5c-0.9,0-1.6-0.3-2.1-0.8s-0.7-1.2-0.7-2.2c0-0.5,0.1-1.1,0.3-1.7s0.4-1.2,0.8-1.7
		c0.4-0.5,0.8-0.9,1.3-1.2c0.5-0.3,1.2-0.5,1.9-0.5c0.9,0,1.6,0.3,2.1,0.8c0.5,0.5,0.7,1.3,0.7,2.2c0,0.6-0.1,1.1-0.3,1.7
		s-0.4,1.1-0.8,1.6c-0.3,0.5-0.8,0.9-1.3,1.2C75.9,18.3,75.3,18.5,74.5,18.5z M74.7,17.3c0.5,0,0.9-0.1,1.2-0.4
		c0.3-0.3,0.6-0.6,0.8-1s0.4-0.8,0.5-1.3c0.1-0.5,0.1-0.9,0.1-1.3c0-0.6-0.1-1-0.4-1.3s-0.6-0.5-1.1-0.5s-0.9,0.1-1.2,0.4
		c-0.3,0.3-0.6,0.6-0.8,1s-0.4,0.8-0.5,1.3c-0.1,0.5-0.1,0.9-0.1,1.3c0,0.6,0.1,1,0.4,1.3C73.8,17.2,74.2,17.3,74.7,17.3z"/>
</g>
</svg>
