<?xml version="1.0" encoding="utf-8"?>
<!-- Generator: Adobe Illustrator 18.0.0, SVG Export Plug-In . SVG Version: 6.00 Build 0)  -->
<!DOCTYPE svg PUBLIC "-//W3C//DTD SVG 1.1//EN" "http://www.w3.org/Graphics/SVG/1.1/DTD/svg11.dtd">
<svg version="1.1" id="Camada_1" xmlns="http://www.w3.org/2000/svg" xmlns:xlink="http://www.w3.org/1999/xlink" x="0px" y="0px"
	 viewBox="0 0 44 44" enable-background="new 0 0 44 44" xml:space="preserve">
<path fill="none" stroke="#BC2944" stroke-width="2" stroke-miterlimit="10" d="M22,1.3c11.5,0,20.7,9.2,20.7,20.7
	S33.5,42.7,22,42.7S1.3,33.5,1.3,22S10.5,1.3,22,1.3z"/>
<path fill="#BC2944" d="M13.9,10.2c-0.7,0.5-3.5,2.6-3.3,4c0.3,2.9,3.1,9,5.7,12.6c2.4,3.6,7.1,8.5,9.7,9.9c1.2,0.7,4.2-1.2,4.8-1.6
	c0.2-0.2,0.3-0.2,0.5-0.3l1.2-1.2c0.7-0.7,0.9-1.6,0.2-1.9l-4.5-4c-0.5-0.5-1.6-0.3-2.3,0.3l-1.6,1.4c-0.3-0.3-0.7-0.7-1.2-1.2
	l-5.9-8.5c-0.2-0.5-0.5-1-0.7-1.6l1.9-0.9c0.9-0.3,1.4-1.2,1-1.9l-2.1-5.7c-0.2-0.7-1-0.9-1.9-0.5l-1.6,0.7
	C14.2,9.8,14.1,10,13.9,10.2z"/>
</svg>
