<?xml version="1.0" encoding="utf-8"?>
<!-- Generator: Adobe Illustrator 18.0.0, SVG Export Plug-In . SVG Version: 6.00 Build 0)  -->
<!DOCTYPE svg PUBLIC "-//W3C//DTD SVG 1.1//EN" "http://www.w3.org/Graphics/SVG/1.1/DTD/svg11.dtd">
<svg version="1.1" id="Camada_1" xmlns="http://www.w3.org/2000/svg" xmlns:xlink="http://www.w3.org/1999/xlink" x="0px" y="0px"
	 viewBox="0 0 28 32" enable-background="new 0 0 28 32" xml:space="preserve">
<path fill-rule="evenodd" clip-rule="evenodd" fill="#BC2734" d="M23,12c-0.6,0-1-0.4-1-1c0-0.1,0-0.1,0-0.1c0,0,0,0,0,0V10h-6
	c-1.1,0-2-0.9-2-2V2H2v28h6v2H7c0,0,0,0,0,0c0,0,0,0,0,0H2c-1.1,0-2-0.9-2-2V2c0-1.1,0.9-2,2-2h12h2l8,8v2v1c0,0,0,0,0,0
	C24,11.6,23.6,12,23,12z M16,2v6h6L16,2z"/>
<path fill-rule="evenodd" clip-rule="evenodd" fill="#BC2734" d="M10.3,26.3l12-12l0,0c0.2-0.2,0.4-0.3,0.7-0.3
	c0.3,0,0.5,0.1,0.7,0.3l0,0l4,4l0,0c0.2,0.2,0.3,0.4,0.3,0.7c0,0.3-0.1,0.5-0.3,0.7l0,0l-12,12l0,0C15.5,31.9,15.3,32,15,32h-1h-3
	c-0.6,0-1-0.4-1-1v-3v-1C10,26.7,10.1,26.5,10.3,26.3L10.3,26.3z M25.6,19L23,16.4l-2.1,2.1l2.6,2.6L25.6,19z M16.5,28.1l5.6-5.6
	l-2.6-2.6l-5.6,5.6L16.5,28.1z M12,28v2h2h0.6l0.5-0.5l-2.6-2.6L12,27.4V28z"/>
</svg>
