<?xml version="1.0" encoding="utf-8"?>
<!-- Generator: Adobe Illustrator 18.0.0, SVG Export Plug-In . SVG Version: 6.00 Build 0)  -->
<!DOCTYPE svg PUBLIC "-//W3C//DTD SVG 1.1//EN" "http://www.w3.org/Graphics/SVG/1.1/DTD/svg11.dtd">
<svg version="1.1" id="Camada_1" xmlns="http://www.w3.org/2000/svg" xmlns:xlink="http://www.w3.org/1999/xlink" x="0px" y="0px"
	 viewBox="0 0 234.9 111" enable-background="new 0 0 234.9 111" xml:space="preserve">
<path fill-rule="evenodd" clip-rule="evenodd" fill="none" stroke="#BC2944" stroke-width="3" stroke-miterlimit="10" d="M55.5,1.5
	c29.8,0,54,24.2,54,54c0,29.8-24.2,54-54,54c-29.8,0-54-24.2-54-54C1.5,25.7,25.7,1.5,55.5,1.5z"/>
<path fill="#BC2944" d="M30.7,83c-1.5,0-2.7-1.2-2.7-2.6V36.2l40.6,24.2c0,0,0,0,0,0c0.1,0.1,0.3,0.1,0.5,0.2c0.1,0,0.1,0.1,0.2,0.1
	c0.2,0.1,0.4,0.1,0.6,0.1c0,0,0.1,0,0.1,0h0c0,0,0.1,0,0.1,0c0.2,0,0.4,0,0.6-0.1c0.1,0,0.1-0.1,0.2-0.1c0.2-0.1,0.3-0.1,0.5-0.2
	c0,0,0,0,0,0l35.4-21c-0.4-0.8-0.8-1.6-1.4-2.3c-0.6-0.7-1.1-1.5-1.5-2.3L70,54.8L33.3,33h69.8c-0.7-1.9-1.3-3.8-2.2-5.5H30.7
	c-2.4,0-4.5,1-6,2.6c-0.2,0.2-0.4,0.4-0.5,0.6c0,0,0,0,0,0c-1,1.4-1.7,3-1.7,4.8v44.8c0,4.5,3.7,8.1,8.1,8.1h68
	c0.3-0.2,0.5-0.5,0.7-0.7c0.5-0.5,1-1,1.3-1.6c0.3-0.5,0.2-0.3,0.1-0.7c-0.1-1,0.3-1.8,0.9-2.3H30.7z"/>
<g>
	<path fill="#BC2634" d="M127.3,33.2c0.4-0.1,0.7-0.1,1.1-0.1c0.4,0,0.8,0,1.1,0c0.7,0,1.4,0.1,2.2,0.2l2.3,19
		c-0.7,0.1-1.3,0.2-1.9,0.2c-0.6,0-1.3-0.1-2-0.2l-0.3-3.8H124l-1.7,3.8c-0.6,0.1-1.3,0.2-2,0.2c-0.7,0-1.3-0.1-1.9-0.2L127.3,33.2z
		 M129.5,45.2l-0.7-7.6l-3.4,7.6H129.5z"/>
	<path fill="#BC2634" d="M143.4,49c0.2,0.3,0.4,0.7,0.5,1.1c0.1,0.4,0.2,1,0.2,1.7c-0.6,0.2-1.2,0.4-1.8,0.5s-1.3,0.2-2.1,0.2
		c-2,0-3.5-0.5-4.4-1.5s-1.4-2.3-1.4-4c0-1,0.2-2.1,0.5-3.1c0.3-1,0.9-2,1.5-2.8c0.7-0.8,1.5-1.5,2.5-2c1-0.5,2.1-0.8,3.4-0.8
		c0.6,0,1.2,0,1.7,0.1c0.6,0.1,1.1,0.2,1.6,0.4c0,0.5-0.1,0.9-0.2,1.5c-0.1,0.5-0.4,1-0.7,1.5c-0.4-0.2-0.8-0.3-1.2-0.4
		c-0.4-0.1-0.8-0.1-1.3-0.1c-0.7,0-1.3,0.2-1.8,0.5c-0.5,0.3-0.9,0.7-1.3,1.2s-0.6,1.1-0.8,1.7s-0.3,1.3-0.3,2c0,1,0.2,1.7,0.7,2.1
		s1.1,0.7,1.9,0.7c0.4,0,0.8,0,1.2-0.1C142.4,49.4,142.9,49.2,143.4,49z"/>
	<path fill="#BC2634" d="M148.1,47.1c0.1,0.8,0.4,1.5,0.8,1.9c0.5,0.4,1.1,0.6,2,0.6c0.7,0,1.3-0.1,1.9-0.2c0.5-0.1,1.1-0.3,1.7-0.6
		c0.3,0.4,0.5,0.8,0.6,1.3c0.1,0.5,0.1,1,0.1,1.6c-0.3,0.1-0.6,0.3-1,0.4c-0.4,0.1-0.8,0.2-1.2,0.3c-0.4,0.1-0.8,0.1-1.3,0.2
		c-0.4,0-0.8,0.1-1.1,0.1c-1.1,0-2-0.1-2.8-0.4c-0.8-0.3-1.4-0.6-1.9-1.1c-0.5-0.5-0.9-1.1-1.1-1.8c-0.2-0.7-0.4-1.5-0.4-2.3
		c0-1.1,0.2-2.1,0.6-3.2c0.4-1,0.9-2,1.6-2.8c0.7-0.8,1.5-1.5,2.5-2c1-0.5,2.1-0.8,3.3-0.8c0.6,0,1.1,0.1,1.6,0.2s0.9,0.4,1.3,0.6
		c0.4,0.3,0.7,0.6,0.9,1.1c0.2,0.4,0.3,0.9,0.3,1.5c0,0.8-0.2,1.5-0.6,2.1c-0.4,0.6-0.9,1.1-1.5,1.5c-0.6,0.4-1.3,0.7-2.1,1
		c-0.8,0.3-1.6,0.4-2.4,0.6L148.1,47.1z M149.6,44.4c0.7-0.1,1.2-0.2,1.6-0.4c0.4-0.2,0.8-0.4,1-0.6c0.2-0.2,0.4-0.4,0.5-0.6
		c0.1-0.2,0.1-0.4,0.1-0.6c0-0.3-0.1-0.6-0.3-0.8c-0.2-0.2-0.5-0.3-0.9-0.3c-0.5,0-0.9,0.1-1.3,0.3c-0.4,0.2-0.7,0.5-1,0.8
		c-0.3,0.3-0.5,0.7-0.7,1.2c-0.2,0.4-0.4,0.9-0.5,1.3L149.6,44.4z"/>
	<path fill="#BC2634" d="M159.2,46.2c-0.3-0.1-0.6-0.2-0.8-0.4c-0.3-0.2-0.5-0.4-0.8-0.6c-0.2-0.3-0.4-0.6-0.6-0.9
		c-0.2-0.4-0.2-0.8-0.2-1.3c0-0.7,0.1-1.4,0.4-2c0.3-0.6,0.7-1.1,1.2-1.5c0.5-0.4,1.1-0.7,1.8-0.9c0.7-0.2,1.5-0.3,2.3-0.3
		c0.3,0,0.6,0,0.9,0c0.3,0,0.7,0.1,1,0.1c0.3,0.1,0.7,0.1,1,0.2c0.3,0.1,0.6,0.2,0.9,0.4c0,0.5-0.1,0.9-0.3,1.4s-0.3,0.9-0.6,1.4
		c-0.4-0.2-0.8-0.4-1.3-0.5c-0.5-0.1-1-0.2-1.5-0.2c-0.2,0-0.4,0-0.6,0.1c-0.2,0-0.5,0.1-0.7,0.2c-0.2,0.1-0.4,0.2-0.5,0.4
		c-0.1,0.2-0.2,0.4-0.2,0.7c0,0.5,0.3,0.9,1,1.2l1,0.4c0.3,0.1,0.7,0.3,1,0.5s0.6,0.4,0.8,0.7c0.2,0.3,0.4,0.6,0.6,0.9
		c0.1,0.4,0.2,0.8,0.2,1.2c0,0.9-0.2,1.6-0.5,2.3s-0.8,1.2-1.4,1.6c-0.6,0.4-1.3,0.8-2.1,1s-1.7,0.3-2.6,0.3c-0.6,0-1.2-0.1-1.9-0.2
		c-0.7-0.1-1.3-0.3-1.9-0.5c0.1-1,0.3-2,0.8-2.9c0.5,0.2,1.1,0.4,1.7,0.5c0.6,0.1,1.1,0.1,1.7,0.1c0.3,0,0.5,0,0.8-0.1
		c0.3-0.1,0.6-0.1,0.8-0.3c0.2-0.1,0.5-0.3,0.6-0.5c0.2-0.2,0.3-0.5,0.3-0.8c0-0.4-0.1-0.6-0.4-0.9c-0.2-0.2-0.6-0.4-1-0.6
		L159.2,46.2z"/>
	<path fill="#BC2634" d="M168.9,46.2c-0.3-0.1-0.6-0.2-0.8-0.4c-0.3-0.2-0.5-0.4-0.8-0.6c-0.2-0.3-0.4-0.6-0.6-0.9
		c-0.2-0.4-0.2-0.8-0.2-1.3c0-0.7,0.1-1.4,0.4-2c0.3-0.6,0.7-1.1,1.2-1.5c0.5-0.4,1.1-0.7,1.8-0.9c0.7-0.2,1.5-0.3,2.3-0.3
		c0.3,0,0.6,0,0.9,0c0.3,0,0.7,0.1,1,0.1c0.3,0.1,0.7,0.1,1,0.2c0.3,0.1,0.6,0.2,0.9,0.4c0,0.5-0.1,0.9-0.3,1.4s-0.3,0.9-0.6,1.4
		c-0.4-0.2-0.8-0.4-1.3-0.5c-0.5-0.1-1-0.2-1.5-0.2c-0.2,0-0.4,0-0.6,0.1c-0.2,0-0.5,0.1-0.7,0.2c-0.2,0.1-0.4,0.2-0.5,0.4
		c-0.1,0.2-0.2,0.4-0.2,0.7c0,0.5,0.3,0.9,1,1.2l1,0.4c0.3,0.1,0.7,0.3,1,0.5s0.6,0.4,0.8,0.7c0.2,0.3,0.4,0.6,0.6,0.9
		c0.1,0.4,0.2,0.8,0.2,1.2c0,0.9-0.2,1.6-0.5,2.3s-0.8,1.2-1.4,1.6c-0.6,0.4-1.3,0.8-2.1,1s-1.7,0.3-2.6,0.3c-0.6,0-1.2-0.1-1.9-0.2
		c-0.7-0.1-1.3-0.3-1.9-0.5c0.1-1,0.3-2,0.8-2.9c0.5,0.2,1.1,0.4,1.7,0.5c0.6,0.1,1.1,0.1,1.7,0.1c0.3,0,0.5,0,0.8-0.1
		c0.3-0.1,0.6-0.1,0.8-0.3c0.2-0.1,0.5-0.3,0.6-0.5c0.2-0.2,0.3-0.5,0.3-0.8c0-0.4-0.1-0.6-0.4-0.9c-0.2-0.2-0.6-0.4-1-0.6
		L168.9,46.2z"/>
	<path fill="#BC2634" d="M180.4,52.6c-1.8,0-3.2-0.5-4-1.4c-0.9-1-1.3-2.3-1.3-3.9c0-1.1,0.2-2.1,0.5-3.2s0.8-2,1.4-2.9
		c0.6-0.9,1.4-1.6,2.4-2.1c1-0.5,2.1-0.8,3.4-0.8c1.8,0,3.2,0.5,4,1.5c0.9,1,1.3,2.3,1.3,3.9c0,1.1-0.2,2.2-0.5,3.2
		c-0.3,1.1-0.8,2-1.4,2.9c-0.6,0.8-1.4,1.5-2.4,2S181.7,52.6,180.4,52.6z M180.7,49.7c0.7,0,1.2-0.2,1.7-0.6
		c0.5-0.4,0.8-0.9,1.1-1.6c0.3-0.6,0.5-1.3,0.6-2c0.1-0.7,0.2-1.3,0.2-1.9c0-1.6-0.7-2.4-2-2.4c-0.7,0-1.2,0.2-1.7,0.7
		c-0.4,0.4-0.8,1-1.1,1.6c-0.3,0.6-0.5,1.3-0.6,2s-0.2,1.3-0.2,1.9C178.9,48.9,179.5,49.7,180.7,49.7z"/>
	<path fill="#BC2634" d="M203.2,46.3c-0.2,1.1-0.3,2.1-0.4,2.9c-0.1,0.9-0.1,1.5-0.1,2c0,0.2,0,0.4,0,0.5s0,0.3,0,0.4
		c-0.6,0.1-1.2,0.2-1.7,0.2c-0.5,0-1-0.1-1.6-0.2c0-0.1-0.1-0.3-0.1-0.5c0-0.2-0.1-0.5-0.1-0.9c0-0.2,0-0.3,0-0.5s0-0.4,0.1-0.6
		c-0.5,0.8-1.2,1.5-2,2s-1.7,0.8-2.8,0.8c-1.2,0-2-0.4-2.6-1.1c-0.6-0.7-0.9-1.7-0.9-2.9c0-1.3,0.2-2.6,0.6-3.8
		c0.4-1.2,1-2.3,1.8-3.3c0.8-1,1.8-1.7,2.9-2.3c1.2-0.6,2.5-0.9,4.1-0.9c0.8,0,1.5,0.1,2.2,0.2c0.7,0.1,1.3,0.3,2,0.4L203.2,46.3z
		 M200.5,41.4c-0.2,0-0.3-0.1-0.5-0.1c-0.1,0-0.3,0-0.4,0c-0.8,0-1.6,0.2-2.2,0.6c-0.6,0.4-1.1,1-1.5,1.6c-0.4,0.6-0.7,1.3-0.8,2
		c-0.2,0.7-0.3,1.4-0.3,2c0,1.3,0.4,2,1.3,2c0.8,0,1.6-0.5,2.4-1.5c0.7-1,1.3-2.5,1.6-4.4L200.5,41.4z"/>
	<path fill="#BC2634" d="M209.4,52.6c-1.8,0-3.2-0.5-4-1.4c-0.9-1-1.3-2.3-1.3-3.9c0-1.1,0.2-2.1,0.5-3.2s0.8-2,1.4-2.9
		c0.6-0.9,1.4-1.6,2.4-2.1c1-0.5,2.1-0.8,3.4-0.8c1.8,0,3.2,0.5,4,1.5c0.9,1,1.3,2.3,1.3,3.9c0,1.1-0.2,2.2-0.5,3.2
		c-0.3,1.1-0.8,2-1.4,2.9c-0.6,0.8-1.4,1.5-2.4,2S210.7,52.6,209.4,52.6z M209.7,49.7c0.7,0,1.2-0.2,1.7-0.6
		c0.5-0.4,0.8-0.9,1.1-1.6c0.3-0.6,0.5-1.3,0.6-2c0.1-0.7,0.2-1.3,0.2-1.9c0-1.6-0.7-2.4-2-2.4c-0.7,0-1.2,0.2-1.7,0.7
		c-0.4,0.4-0.8,1-1.1,1.6c-0.3,0.6-0.5,1.3-0.6,2s-0.2,1.3-0.2,1.9C207.8,48.9,208.5,49.7,209.7,49.7z"/>
</g>
<g>
	<path fill="#CD5C66" d="M118.8,56.2c0.8-0.1,1.6-0.2,2.5-0.2c0.4,0,0.8,0,1.2,0c0.4,0,0.8,0.1,1.1,0.2l0.1,16.6l6.6-16.6
		c0.4-0.1,0.8-0.1,1.2-0.2c0.3,0,0.7,0,1.1,0c0.3,0,0.6,0,1,0c0.3,0,0.7,0.1,1,0.2l0.8,17l6-17c0.4-0.1,0.8-0.1,1.2-0.2
		c0.4,0,0.8,0,1.1,0c0.4,0,0.7,0,1.1,0c0.4,0,0.8,0.1,1.1,0.1L136.7,79c-0.4,0.1-0.8,0.1-1.2,0.1c-0.4,0-0.8,0-1.2,0
		c-0.8,0-1.6-0.1-2.5-0.2l-0.8-14.7L124.7,79l-1.1,0.1c-0.6,0.1-1.1,0.1-1.6,0.1c-0.6,0-1.3-0.1-2.1-0.2L118.8,56.2z"/>
	<path fill="#CD5C66" d="M146.9,72.8c0.1,1,0.5,1.8,1,2.3c0.5,0.5,1.4,0.7,2.4,0.7c0.8,0,1.6-0.1,2.2-0.3c0.6-0.2,1.3-0.4,2-0.7
		c0.3,0.4,0.6,0.9,0.7,1.5c0.1,0.6,0.2,1.2,0.2,1.9c-0.4,0.2-0.8,0.3-1.3,0.5s-1,0.3-1.5,0.3c-0.5,0.1-1,0.2-1.5,0.2s-1,0.1-1.4,0.1
		c-1.3,0-2.4-0.2-3.3-0.5s-1.7-0.8-2.3-1.3s-1-1.3-1.3-2.1s-0.4-1.8-0.4-2.8c0-1.3,0.2-2.6,0.7-3.8s1.1-2.4,1.9-3.3s1.8-1.8,3-2.4
		c1.2-0.6,2.5-0.9,4-0.9c0.7,0,1.3,0.1,2,0.3c0.6,0.2,1.1,0.4,1.6,0.8c0.4,0.3,0.8,0.8,1,1.3s0.4,1.1,0.4,1.8c0,1-0.2,1.8-0.7,2.5
		s-1,1.3-1.8,1.8c-0.7,0.5-1.6,0.9-2.5,1.2c-0.9,0.3-1.9,0.5-2.9,0.7L146.9,72.8z M148.7,69.5c0.8-0.1,1.5-0.3,2-0.5
		c0.5-0.2,0.9-0.4,1.2-0.7c0.3-0.2,0.5-0.5,0.6-0.7s0.2-0.5,0.2-0.8c0-0.4-0.1-0.7-0.4-1c-0.3-0.3-0.6-0.4-1.1-0.4
		c-0.6,0-1.1,0.1-1.5,0.4c-0.5,0.2-0.9,0.6-1.2,1s-0.6,0.9-0.9,1.4c-0.2,0.5-0.4,1-0.6,1.6L148.7,69.5z"/>
	<path fill="#CD5C66" d="M159,61.9c0.4-2.2,0.6-3.9,0.6-5c0-0.2,0-0.4,0-0.6c0-0.2,0-0.3,0-0.5c0.4-0.1,0.8-0.1,1.2-0.1
		c0.5,0,0.9,0,1.2,0c0.6,0,1.3,0.1,2,0.2c0.1,0.3,0.2,0.7,0.2,1.2c0,0.9-0.1,2.1-0.4,3.4l-0.8,4.4c0.3-0.3,0.5-0.6,0.8-0.9
		c0.3-0.3,0.7-0.6,1.1-0.8s0.9-0.5,1.4-0.6c0.5-0.1,1.1-0.2,1.8-0.2c1.5,0,2.6,0.5,3.4,1.5s1.2,2.5,1.2,4.4c0,1.3-0.2,2.6-0.6,4
		c-0.4,1.3-1,2.5-1.9,3.6s-2.1,2-3.6,2.6s-3.3,1-5.5,1c-1,0-1.9-0.1-2.7-0.3s-1.6-0.4-2.3-0.7L159,61.9z M161.1,75.4
		c0.2,0.1,0.4,0.1,0.7,0.1c0.3,0,0.5,0,0.8,0c0.9,0,1.7-0.2,2.4-0.7s1.2-1,1.7-1.7c0.4-0.7,0.8-1.4,1-2.2c0.2-0.8,0.3-1.6,0.3-2.3
		c0-0.7-0.2-1.4-0.5-1.9c-0.3-0.5-0.8-0.8-1.6-0.8c-1,0-1.8,0.4-2.5,1.2s-1.2,2.2-1.5,4.1L161.1,75.4z"/>
	<path fill="#CD5C66" d="M173.8,69.6c0.2-1.3,0.4-2.5,0.5-3.5c0.1-1,0.2-1.8,0.2-2.4c0-0.2,0-0.4,0-0.6c0-0.2,0-0.3,0-0.5
		c0.7-0.1,1.4-0.2,2.1-0.2c0.3,0,0.6,0,1,0c0.3,0,0.7,0.1,1,0.1c0,0.2,0.1,0.4,0.1,0.6c0,0.2,0.1,0.6,0.1,1c0,0.2,0,0.4,0,0.6
		c0,0.2,0,0.4-0.1,0.7c0.5-0.9,1.2-1.7,2.2-2.3c1-0.6,2-1,3.2-1c1.1,0,2,0.2,2.6,0.7s1,1.3,1.1,2.5c0.5-0.9,1.2-1.6,2.2-2.3
		c1-0.6,2-0.9,3.2-0.9c1.3,0,2.2,0.3,2.9,0.9c0.7,0.6,1,1.7,1,3.1c0,0.7-0.1,1.5-0.2,2.3L194.9,79c-0.8,0.1-1.6,0.2-2.3,0.2
		c-0.7,0-1.5-0.1-2.2-0.2l1.8-10.1c0.1-0.5,0.1-0.9,0.1-1.4c0-0.6-0.1-1-0.3-1.2c-0.2-0.2-0.6-0.3-1.1-0.3c-0.3,0-0.6,0.1-1,0.2
		s-0.7,0.4-1.1,0.9c-0.4,0.4-0.7,1-1,1.7s-0.6,1.7-0.8,2.9l-1.3,7.3c-0.8,0.1-1.6,0.2-2.3,0.2c-0.7,0-1.5-0.1-2.2-0.2l1.8-10.1
		c0.1-0.5,0.1-0.9,0.1-1.4c0-0.6-0.1-1-0.3-1.2c-0.2-0.2-0.6-0.3-1.1-0.3c-0.3,0-0.6,0.1-1,0.2s-0.7,0.5-1.1,0.9s-0.7,1.1-1,2
		s-0.6,2-0.9,3.4l-1.2,6.4c-0.8,0.1-1.6,0.2-2.3,0.2c-0.7,0-1.5-0.1-2.2-0.2L173.8,69.6z"/>
	<path fill="#CD5C66" d="M211.6,71.9c-0.2,1.3-0.4,2.5-0.5,3.5c-0.1,1-0.2,1.8-0.2,2.4c0,0.2,0,0.4,0,0.6s0,0.3,0,0.5
		c-0.7,0.1-1.4,0.2-2.1,0.2c-0.6,0-1.2-0.1-2-0.2c0-0.2-0.1-0.4-0.1-0.6c0-0.2-0.1-0.6-0.1-1c0-0.2,0-0.4,0-0.6c0-0.2,0-0.5,0.1-0.7
		c-0.6,1-1.4,1.8-2.3,2.4s-2.1,1-3.3,1c-1.4,0-2.4-0.4-3.1-1.3s-1-2.1-1-3.5c0-1.6,0.2-3.1,0.7-4.6s1.2-2.8,2.1-3.9s2.1-2.1,3.5-2.7
		c1.4-0.7,3-1,4.9-1c0.9,0,1.8,0.1,2.6,0.2c0.8,0.1,1.6,0.3,2.4,0.5L211.6,71.9z M208.3,66c-0.2,0-0.4-0.1-0.6-0.1
		c-0.2,0-0.4,0-0.5,0c-1,0-1.9,0.3-2.6,0.8c-0.7,0.5-1.3,1.1-1.8,1.9s-0.8,1.6-1,2.5c-0.2,0.9-0.3,1.7-0.3,2.4
		c0,1.6,0.5,2.3,1.6,2.3c1,0,2-0.6,2.8-1.9s1.5-3,1.9-5.2L208.3,66z"/>
	<path fill="#CD5C66" d="M215.5,66h-2c0-0.1,0-0.1,0-0.2s0-0.1,0-0.2c0-0.5,0.1-1.1,0.2-1.5c0.1-0.5,0.3-1,0.5-1.5h6.4L217.6,79
		c-0.8,0.1-1.6,0.2-2.3,0.2c-0.7,0-1.4-0.1-2.1-0.2L215.5,66z M216.4,59.8c0-0.7,0-1.4,0.1-2.1c0.1-0.7,0.3-1.4,0.6-2.1
		c0.4-0.1,0.8-0.1,1.2-0.2s0.8,0,1.1,0s0.7,0,1.1,0s0.8,0.1,1.2,0.2c0,0.7-0.1,1.4-0.2,2.1c-0.1,0.7-0.3,1.4-0.6,2.1
		c-0.4,0.1-0.8,0.1-1.2,0.1c-0.4,0-0.8,0-1.1,0c-0.3,0-0.7,0-1.1,0C217.2,59.9,216.8,59.9,216.4,59.8z"/>
	<path fill="#CD5C66" d="M222.7,61.9c0.2-1.1,0.4-2.1,0.5-2.9s0.1-1.5,0.1-2.1c0-0.2,0-0.4,0-0.6c0-0.2,0-0.3,0-0.5
		c0.4-0.1,0.8-0.1,1.2-0.1c0.5,0,0.9,0,1.2,0c0.6,0,1.3,0.1,2,0.2c0.1,0.3,0.2,0.7,0.2,1.2c0,0.4,0,1-0.1,1.5s-0.2,1.2-0.3,1.9
		l-2.4,12.8c-0.1,0.4-0.1,0.7-0.1,0.9c0,0.3,0,0.6,0.1,0.8s0.2,0.3,0.4,0.4c0.1,0.1,0.3,0.2,0.5,0.2s0.4,0,0.6,0c0.1,0,0.2,0,0.5,0
		s0.4-0.1,0.6-0.1c0.1,0.4,0.2,0.8,0.3,1.2c0.1,0.4,0.1,0.9,0.1,1.3c0,0.2,0,0.3,0,0.5c0,0.1,0,0.3,0,0.5c-0.3,0.1-0.7,0.2-1.2,0.3
		s-1.1,0.1-1.7,0.1c-1.4,0-2.6-0.4-3.4-1.1s-1.2-1.8-1.2-3.3c0-0.3,0-0.6,0.1-0.9c0-0.3,0.1-0.7,0.2-1L222.7,61.9z"/>
</g>
</svg>
