<?xml version="1.0" encoding="utf-8"?>
<!-- Generator: Adobe Illustrator 18.0.0, SVG Export Plug-In . SVG Version: 6.00 Build 0)  -->
<!DOCTYPE svg PUBLIC "-//W3C//DTD SVG 1.1//EN" "http://www.w3.org/Graphics/SVG/1.1/DTD/svg11.dtd">
<svg version="1.1" id="Camada_1" xmlns="http://www.w3.org/2000/svg" xmlns:xlink="http://www.w3.org/1999/xlink" x="0px" y="0px"
	 viewBox="0 0 32 24.1" enable-background="new 0 0 32 24.1" xml:space="preserve">
<path fill-rule="evenodd" clip-rule="evenodd" fill="#E84243" d="M32,12c0,0.3-0.1,0.5-0.3,0.7l0,0l-6,6l0,0
	C25.5,18.9,25.3,19,25,19c-0.6,0-1-0.4-1-1c0-0.3,0.1-0.5,0.3-0.7l0,0l5.3-5.3l-5.3-5.3l0,0C24.1,6.6,24,6.3,24,6c0-0.6,0.4-1,1-1
	c0.3,0,0.5,0.1,0.7,0.3l0,0l6,6l0,0C31.9,11.5,32,11.8,32,12z M21.9,1.4l-10,22.1l0,0c-0.1,0.3-0.4,0.5-0.8,0.6
	c-0.5,0.1-1.1-0.3-1.1-0.8c0-0.2,0-0.4,0.1-0.5l0,0l10-22.1l0,0c0.1-0.3,0.4-0.5,0.8-0.6c0.5-0.1,1.1,0.3,1.1,0.8
	C22,1,22,1.2,21.9,1.4L21.9,1.4z M7,19c-0.3,0-0.5-0.1-0.7-0.3l0,0l-6-6l0,0C0.1,12.6,0,12.3,0,12c0-0.3,0.1-0.5,0.3-0.7l0,0l6-6
	l0,0C6.5,5.1,6.7,5,7,5c0.6,0,1,0.4,1,1c0,0.3-0.1,0.5-0.3,0.7l0,0L2.4,12l5.3,5.3l0,0C7.9,17.5,8,17.8,8,18C8,18.6,7.6,19,7,19z"/>
</svg>
