<?xml version="1.0" encoding="utf-8"?>
<!-- Generator: Adobe Illustrator 18.0.0, SVG Export Plug-In . SVG Version: 6.00 Build 0)  -->
<!DOCTYPE svg PUBLIC "-//W3C//DTD SVG 1.1//EN" "http://www.w3.org/Graphics/SVG/1.1/DTD/svg11.dtd">
<svg version="1.1" id="Camada_1" xmlns="http://www.w3.org/2000/svg" xmlns:xlink="http://www.w3.org/1999/xlink" x="0px" y="0px"
	 viewBox="0 0 83 83" enable-background="new 0 0 83 83" xml:space="preserve">
<path fill-rule="evenodd" clip-rule="evenodd" fill="none" stroke="#DADADA" stroke-width="10" stroke-miterlimit="10" d="M41.5,5.4
	c20,0,36.1,16.2,36.1,36.1S61.5,77.6,41.5,77.6S5.4,61.5,5.4,41.5S21.5,5.4,41.5,5.4z"/>
<path fill-rule="evenodd" clip-rule="evenodd" fill="none" stroke="#EA8686" stroke-width="6" stroke-miterlimit="10" d="M41.5,5.4
	C5.4,8,5.4,41.5,5.4,41.5s0,35.5,36.1,36.1c-20,0-36.1-16.2-36.1-36.1S21.5,5.4,41.5,5.4z"/>
<path fill-rule="evenodd" clip-rule="evenodd" fill="none" stroke="#E84243" stroke-width="6" stroke-miterlimit="10" d="M41.4,77.6
	C77.5,75,77.5,41.5,77.5,41.5S77.5,6,41.4,5.4c20,0,36.1,16.2,36.1,36.1S61.3,77.6,41.4,77.6z"/>
<path fill-rule="evenodd" clip-rule="evenodd" fill="#CF505A" d="M49.9,41.2c-0.9-0.3-1.7-0.7-2.4-1c-0.1-0.2,0.1-0.5,0.1-1.1
	c0-0.5-0.1-0.6-0.5-0.6c-0.5,0-1.1,0.3-1.6,0.1l-0.3-2c1.1-0.4,1.3-2,1.3-3.3c1.9-0.4,2.2-4.6,0.8-4.9c-0.2-0.5,1.3-4.6-0.2-7
	c-1-1.5-3.7-2.4-5.8-2.6v42l13.3-8.4l0.8-8.7C54.5,43.1,52.5,42.2,49.9,41.2L49.9,41.2z M60.9,40c0.3,1.4,1.5,2.2,4,3.1
	c2,0.7,3.6,1.5,4.5,2.1l-0.9,7.4H57.3l1-10.1c-0.9-0.7-2-1.3-3.2-1.9c0.1-0.2,0.2-0.4,0.2-0.7v-0.3c-1.3-0.1-2.4-0.5-3.2-1.1
	c0.3-0.3,0.5-0.7,0.4-1.2c-0.4,0.4-0.9,0.7-1.7,0.8c2.4-2,1.9-4.9,2.5-7.6c0.2-1.2,0.5-2.4,1.4-3.3c0.8-0.8,2.1-1.3,3.4-1.3
	c1.3,0,2.6,0.5,3.4,1.3c0.9,0.9,1.1,2.1,1.4,3.3c0.5,2.7,0.1,5.6,2.5,7.6c-0.8-0.1-1.3-0.3-1.7-0.8c0,0.5,0.1,0.9,0.4,1.2
	c-0.8,0.5-1.9,1-3.2,1.1V40z"/>
<path fill-rule="evenodd" clip-rule="evenodd" fill="#EB5F69" d="M41.4,19c-0.2,0-0.4,0-0.6,0c-1.8,0-3.7,0.3-3,1.8
	c-4.8,1-2.5,4.5-2.5,7.8c-1.6,0.6-0.4,4.8,1,4.9c0.2,1.9,0.9,3.3,1.6,3.4l-0.2,1.9c-0.4,0-2.1-0.5-2,0.3l0.1,0.9
	c-0.8,0.5-1.6,0.8-2.9,1.3c-2.6,0.9-4.5,1.9-5.6,2.7l0.8,8.7L41.4,61V19L41.4,19z M20.5,35.6c-1.3-0.4-1.6-3.3-0.7-3.5
	c-0.1-0.4-0.3-0.8-0.1-1.5c-0.3,0-0.5,0-0.8,0.3c0-0.4,0.7-1.3,0.9-1.6c0.1-0.1,0.2-0.3,0.3-0.4c0.4-1.8,1.9-2.5,2.8-2.9
	c0.1,0.2,0.7,0.4,1.1,0.3c0-0.4,0-0.9,1.3-1.5c-0.1,1.8,4.1,1.3,4.5,4c0.1,0.9-0.1,1.8-0.1,3.3c0.7-0.2,1.4,2.4-0.3,3.6
	c-0.2,2.3-1.8,2.8-1.9,3.7c0,0.5,0.1,0.9,0.3,1.3c-1.2,0.6-2.3,1.2-3.2,1.9l1,10.1H14.3l-0.9-7.4c0.9-0.7,2.4-1.4,4.5-2.1
	c1.3-0.5,3.6-1.4,4-2.9c0.1-0.3,0.2-0.9,0.1-1.2C21.5,38.1,20.5,37.6,20.5,35.6z"/>
</svg>
