<?xml version="1.0" encoding="utf-8"?>
<!-- Generator: Adobe Illustrator 18.0.0, SVG Export Plug-In . SVG Version: 6.00 Build 0)  -->
<!DOCTYPE svg PUBLIC "-//W3C//DTD SVG 1.1//EN" "http://www.w3.org/Graphics/SVG/1.1/DTD/svg11.dtd">
<svg version="1.1" id="Camada_2" xmlns="http://www.w3.org/2000/svg" xmlns:xlink="http://www.w3.org/1999/xlink" x="0px" y="0px"
	 viewBox="0 0 44 44" enable-background="new 0 0 44 44" xml:space="preserve">
<path fill="#FFFFFF" d="M12.5,22.2h4.3V9.8h-4.3C12.5,9.8,12.5,22.2,12.5,22.2z"/>
<path fill="#FFFFFF" d="M27,9.5c-1.8,0-2.8,0.6-4,2V9.8h-4.3v12.4H23v-6.7c0-1.4,0.7-2.8,2.3-2.8c1.6,0,2,1.4,2,2.8v6.8h4.3v-7.1
	C31.7,10.3,28.8,9.5,27,9.5z"/>
<path fill="#FFFFFF" d="M14.7,3.6c-1.3,0-2.4,1-2.4,2.2S13.3,8,14.7,8s2.4-1,2.4-2.2C17.1,4.6,16,3.6,14.7,3.6z"/>
<g>
	<path fill="#FFFFFF" d="M1,39.5h2v0.9H0v-8.9h1V39.5z"/>
	<path fill="#FFFFFF" d="M5.5,31.5h1v8.9h-1V31.5z"/>
	<path fill="#FFFFFF" d="M12.6,31.5h0.9v8.9h-1l-1.8-6.8v6.8H9.8v-8.9h1.1l1.7,6.6V31.5z"/>
	<path fill="#FFFFFF" d="M16.6,40.4v-8.9h1v8.9H16.6z M20.5,31.5l-1.9,4.4l1.8,4.4h-1L17.6,36l1.8-4.4L20.5,31.5L20.5,31.5z"/>
	<path fill="#FFFFFF" d="M24,39.5h2.3v0.9H23v-8.9h3.2v0.9H24v3h1.9v0.9H24V39.5z"/>
	<path fill="#FFFFFF" d="M29,31.5h2.7c0.7,0,1.1,0.4,1.1,1.1v6.6c0,0.8-0.4,1.1-1.1,1.1H29C29,40.4,29,31.5,29,31.5z M31.9,39.1
		v-6.3c0-0.2,0-0.3-0.1-0.4c0,0-0.2-0.1-0.3-0.1H30v7.2h1.5c0.2,0,0.3,0,0.3-0.1C31.8,39.4,31.9,39.3,31.9,39.1z"/>
	<path fill="#FFFFFF" d="M36,31.5h1v8.9h-1V31.5z"/>
	<path fill="#FFFFFF" d="M43.1,31.5H44v8.9h-1l-1.8-6.8v6.8h-0.9v-8.9h1.1l1.7,6.6C43.1,38.1,43.1,31.5,43.1,31.5z"/>
</g>
</svg>
