<?xml version="1.0" encoding="utf-8"?>
<!-- Generator: Adobe Illustrator 18.0.0, SVG Export Plug-In . SVG Version: 6.00 Build 0)  -->
<!DOCTYPE svg PUBLIC "-//W3C//DTD SVG 1.1//EN" "http://www.w3.org/Graphics/SVG/1.1/DTD/svg11.dtd">
<svg version="1.1" id="Camada_2" xmlns="http://www.w3.org/2000/svg" xmlns:xlink="http://www.w3.org/1999/xlink" x="0px" y="0px"
	 viewBox="0 0 44 44" enable-background="new 0 0 44 44" xml:space="preserve">
<path fill="#FFFFFF" d="M25.6,12.5h-2.9v7.8h-3v-7.8h-2V9.7h2c0,0,0-1.1,0-2.4c0-1.9,1.2-3.6,4-3.6c1.1,0,2,0.1,2,0.1l0,2.6
	c0,0-0.9,0-1.8,0c-1,0-1.2,0.5-1.2,1.2c0,0.1,0,0.1,0,0.1c0,0.2,0,0.8,0,1.9h3.1L25.6,12.5z"/>
<g>
	<path fill="#FFFFFF" d="M3.1,32.4H1v3.1h1.7v0.8H1v4H0.1v-8.7h3L3.1,32.4L3.1,32.4z"/>
	<path fill="#FFFFFF" d="M7.9,40.4l-0.3-2.2H6l-0.3,2.2H4.9l1.2-8.7h1.3l1.4,8.7H7.9z M6.1,37.3h1.3l-0.7-5L6.1,37.3z"/>
	<path fill="#FFFFFF" d="M14.3,34.2h-0.9v-1.3c0-0.2,0-0.3-0.1-0.3c0,0-0.1-0.1-0.3-0.1h-0.7c-0.1,0-0.3,0-0.3,0.1c0,0,0,0.2,0,0.3
		v6.2c0,0.2,0,0.3,0,0.3c0,0,0.1,0.1,0.3,0.1H13c0.1,0,0.2,0,0.3-0.1s0.1-0.2,0.1-0.3v-1.3h0.9v1.5c0,0.7-0.3,1.1-1,1.1h-1.2
		c-0.7,0-1-0.4-1-1.1v-6.5c0-0.7,0.3-1.1,1-1.1h1.2c0.7,0,1,0.4,1,1.1V34.2z"/>
	<path fill="#FFFFFF" d="M17.8,39.5h2.1v0.9h-3v-8.7h2.9v0.8h-2v3h1.7v0.8h-1.7V39.5z"/>
	<path fill="#FFFFFF" d="M22.4,31.6h2.4c0.7,0,1,0.4,1,1.1v2.5c0,0.4-0.1,0.7-0.5,0.7c0.3,0,0.5,0.3,0.5,0.7v2.7
		c0,0.7-0.3,1.1-1,1.1h-2.4V31.6z M24.9,35.1v-2.1c0-0.2,0-0.3-0.1-0.3c0,0-0.1-0.1-0.3-0.1h-1.3v3h1.3c0.1,0,0.2,0,0.3-0.1
		C24.9,35.3,24.9,35.2,24.9,35.1z M24.9,39.1v-2.3c0-0.2,0-0.3-0.1-0.3c0,0-0.1-0.1-0.3-0.1h-1.3v3.2h1.3c0.1,0,0.2,0,0.3-0.1
		C24.9,39.4,24.9,39.3,24.9,39.1z"/>
	<path fill="#FFFFFF" d="M29.5,31.6h1.3c0.7,0,1,0.4,1,1.1v6.5c0,0.7-0.3,1.1-1,1.1h-1.3c-0.7,0-1-0.4-1-1.1v-6.5
		C28.5,32,28.8,31.6,29.5,31.6z M30.9,39.1v-6.2c0-0.2,0-0.3-0.1-0.3s-0.1-0.1-0.3-0.1h-0.8c-0.1,0-0.2,0-0.3,0.1
		c0,0-0.1,0.2-0.1,0.3v6.2c0,0.2,0,0.3,0.1,0.3c0,0,0.1,0.1,0.3,0.1h0.8c0.1,0,0.2,0,0.3-0.1C30.9,39.4,30.9,39.3,30.9,39.1z"/>
	<path fill="#FFFFFF" d="M35.5,31.6h1.3c0.7,0,1,0.4,1,1.1v6.5c0,0.7-0.3,1.1-1,1.1h-1.3c-0.7,0-1-0.4-1-1.1v-6.5
		C34.5,32,34.8,31.6,35.5,31.6z M36.9,39.1v-6.2c0-0.2,0-0.3-0.1-0.3s-0.1-0.1-0.3-0.1h-0.7c-0.1,0-0.2,0-0.3,0.1
		c0,0-0.1,0.2-0.1,0.3v6.2c0,0.2,0,0.3,0.1,0.3c0,0,0.1,0.1,0.3,0.1h0.8c0.1,0,0.2,0,0.3-0.1C36.8,39.4,36.9,39.3,36.9,39.1z"/>
	<path fill="#FFFFFF" d="M40.5,40.4v-8.7h0.9v8.7H40.5z M44,31.6L42.4,36l1.6,4.3h-0.9L41.5,36l1.6-4.4H44z"/>
</g>
</svg>
