<?xml version="1.0" encoding="utf-8"?>
<!-- Generator: Adobe Illustrator 18.0.0, SVG Export Plug-In . SVG Version: 6.00 Build 0)  -->
<!DOCTYPE svg PUBLIC "-//W3C//DTD SVG 1.1//EN" "http://www.w3.org/Graphics/SVG/1.1/DTD/svg11.dtd">
<svg version="1.1" id="Camada_1" xmlns="http://www.w3.org/2000/svg" xmlns:xlink="http://www.w3.org/1999/xlink" x="0px" y="0px"
	 viewBox="0 0 44 44" enable-background="new 0 0 44 44" xml:space="preserve">
<path fill="#FFFFFF" d="M8.8,3.6h7.7c3.1,0,5.1,1.1,5.1,4.1c0,1.6-0.8,2.7-2.2,3.4c2,0.6,3,2.1,3,4.1c0,3.3-2.8,4.7-5.7,4.7H8.8V3.6
	z M12.1,10.2h3.6c1.2,0,2.2-0.6,2.2-2c0-1.6-1.2-1.9-2.5-1.9h-3.3C12.1,6.4,12.1,10.2,12.1,10.2z M12.1,17.1h3.8
	c1.4,0,2.6-0.5,2.6-2.1c0-1.7-1-2.3-2.6-2.3H12L12.1,17.1L12.1,17.1z"/>
<path fill="#FFFFFF" d="M26.5,15.1c0.1,2,1.1,2.8,2.9,2.8c1.3,0,2.3-0.4,2.6-1.1h2.6c-0.9,2.8-2.6,3.6-5.2,3.6c-3.7,0-6-2.6-6-6.2
	c0-3.5,2.4-6.2,6-6.2c4,0,6,3.5,5.7,7.2H26.5z M31.8,12.7c-0.3-1.6-1-2.3-2.6-2.3c-2,0-2.6,1.4-2.7,2.3H31.8z"/>
<path fill="#FFFFFF" d="M32.6,6.9H26V5.3h6.5C32.6,5.3,32.6,6.9,32.6,6.9z"/>
<g>
	<path fill="#FFFFFF" d="M0,31.4h2.8c0.8,0,1.1,0.4,1.1,1.1v2.5c0,0.4-0.2,0.7-0.5,0.7c0.3,0,0.5,0.3,0.5,0.7v2.7
		c0,0.8-0.4,1.1-1.1,1.1H0V31.4z M3,34.9v-2.2c0-0.2,0-0.3-0.1-0.4c0,0-0.2-0.1-0.3-0.1H1v3.1h1.5c0.2,0,0.3,0,0.3-0.1
		C2.9,35.3,3,35.1,3,34.9z M3,39.1v-2.4c0-0.2,0-0.3-0.1-0.4c0,0-0.2-0.1-0.3-0.1H1v3.3h1.5c0.2,0,0.3,0,0.3-0.1
		C2.9,39.4,3,39.3,3,39.1z"/>
	<path fill="#FFFFFF" d="M8.1,39.5h2.4v0.9H7.2v-8.9h3.3v0.9H8.1v3H10v0.9H8.1V39.5z"/>
	<path fill="#FFFFFF" d="M16.2,31.4h1v8.9h-1v-4h-1.9v4h-1v-8.9h1v4.1h1.9V31.4z"/>
	<path fill="#FFFFFF" d="M23.4,40.4L23,38.1h-1.8l-0.3,2.2h-1l1.4-8.9h1.5l1.5,8.9H23.4z M21.3,37.3h1.5L22,32.2L21.3,37.3z"/>
	<path fill="#FFFFFF" d="M29.9,31.4h0.9v8.9h-1L28,33.4v6.9h-0.9v-8.9h1.1l1.8,6.7L29.9,31.4L29.9,31.4z"/>
	<path fill="#FFFFFF" d="M37.7,34.1h-1v-1.3c0-0.2,0-0.3-0.1-0.4c0,0-0.2-0.1-0.3-0.1h-0.8c-0.2,0-0.3,0-0.4,0.1
		c0,0-0.1,0.2-0.1,0.4v6.3c0,0.2,0,0.3,0.1,0.4c0,0.1,0.2,0.1,0.4,0.1h0.8c0.2,0,0.3,0,0.3-0.1c0,0,0.1-0.2,0.1-0.4v-1.3h1v1.5
		c0,0.8-0.4,1.1-1.1,1.1h-1.4c-0.8,0-1.1-0.4-1.1-1.1v-6.7c0-0.8,0.4-1.1,1.1-1.1h1.4c0.8,0,1.1,0.4,1.1,1.1V34.1z"/>
	<path fill="#FFFFFF" d="M41.7,39.5h2.4v0.9h-3.4v-8.9H44v0.9h-2.3v3h1.9v0.9h-1.9L41.7,39.5L41.7,39.5z"/>
</g>
</svg>
