<?xml version="1.0" encoding="utf-8"?>
<!-- Generator: Adobe Illustrator 18.0.0, SVG Export Plug-In . SVG Version: 6.00 Build 0)  -->
<!DOCTYPE svg PUBLIC "-//W3C//DTD SVG 1.1//EN" "http://www.w3.org/Graphics/SVG/1.1/DTD/svg11.dtd">
<svg version="1.1" id="Camada_3" xmlns="http://www.w3.org/2000/svg" xmlns:xlink="http://www.w3.org/1999/xlink" x="0px" y="0px"
	 viewBox="0 0 44 44" enable-background="new 0 0 44 44" xml:space="preserve">
<path fill="#FFFFFF" d="M21.5,3.6c-4.7,0-8.6,3.8-8.6,8.6c0,3.5,2.1,6.6,5.2,7.9c0-0.6,0-1.3,0.1-2c0.1-0.7,1.1-4.7,1.1-4.7
	s-0.3-0.6-0.3-1.4c0-1.3,0.8-2.2,1.7-2.2c0.8,0,1.1,0.6,1.1,1.3c0,0.8-0.5,2-0.8,3.1c-0.2,0.9,0.5,1.7,1.3,1.7
	c1.6,0,2.7-2.1,2.7-4.6c0-1.9-1.3-3.3-3.6-3.3c-2.6,0-4.2,2-4.2,4.1c0,0.8,0.2,1.3,0.6,1.7c0.1,0.2,0.2,0.3,0.1,0.5
	c0,0.1-0.1,0.5-0.2,0.7c0,0.2-0.2,0.3-0.4,0.2c-1.2-0.5-1.8-1.8-1.8-3.3c0.1-2.3,2.1-5.3,6.2-5.3c3.3,0,5.4,2.4,5.4,4.9
	c0,3.4-1.9,5.9-4.6,5.9c-0.9,0-1.8-0.5-2.1-1c0,0-0.5,2-0.6,2.4c-0.2,0.7-0.5,1.3-0.9,1.8c0.8,0.2,1.5,0.3,2.4,0.3
	c4.7,0,8.6-3.8,8.6-8.6C30.1,7.5,26.3,3.6,21.5,3.6z"/>
<g>
	<path fill="#FFFFFF" d="M0,31.5h2.1c0.6,0,1,0.4,1,1.1v3.1c0,0.8-0.3,1.1-1,1.1H0.8v3.5H0V31.5z M2.3,35.5v-2.7c0-0.2,0-0.3,0-0.4
		c0,0-0.1-0.1-0.3-0.1H0.8v3.6h1.1c0.1,0,0.2,0,0.3-0.1C2.3,35.8,2.3,35.7,2.3,35.5z"/>
	<path fill="#FFFFFF" d="M5.7,31.5h0.8v8.9H5.7V31.5z"/>
	<path fill="#FFFFFF" d="M11.8,31.5h0.8v8.9h-0.9l-1.5-6.9v6.9H9.3v-8.9h1l1.5,6.6V31.5z"/>
	<path fill="#FFFFFF" d="M17.8,31.5v0.9h-1.2v8h-0.8v-8h-1.2v-0.9H17.8z"/>
	<path fill="#FFFFFF" d="M20.8,39.5h2v0.9H20v-8.9h2.8v0.9h-2v3h1.6v0.9h-1.6L20.8,39.5L20.8,39.5z"/>
	<path fill="#FFFFFF" d="M26,36.6v3.7h-0.8v-8.9h2.1c0.6,0,1,0.4,1,1.1v2.9c0,0.7-0.2,1-0.7,1.1l1,3.7h-0.9l-1.1-3.7L26,36.6
		L26,36.6z M26,32.3v3.5h1.1c0.1,0,0.2,0,0.3-0.1c0,0,0-0.2,0-0.4v-2.6c0-0.2,0-0.3,0-0.4c0,0-0.1-0.1-0.3-0.1L26,32.3L26,32.3z"/>
	<path fill="#FFFFFF" d="M31.7,39.5h2v0.9h-2.9v-8.9h2.8v0.9h-2v3h1.6v0.9h-1.6C31.7,36.2,31.7,39.5,31.7,39.5z"/>
	<path fill="#FFFFFF" d="M38,39.1v-2.4c0-0.2,0-0.3,0-0.4c0,0-0.1-0.1-0.3-0.1h-0.8c-0.6,0-1-0.4-1-1.1v-2.5c0-0.8,0.3-1.1,1-1.1h1
		c0.6,0,1,0.4,1,1.1v1.4h-0.8v-1.2c0-0.2,0-0.3,0-0.4c0,0-0.1-0.1-0.3-0.1h-0.5c-0.1,0-0.2,0-0.3,0.1c0,0,0,0.2,0,0.4v2.1
		c0,0.2,0,0.3,0,0.3c0,0,0.1,0.1,0.3,0.1H38c0.6,0,1,0.4,1,1.1v2.7c0,0.8-0.3,1.1-1,1.1h-1c-0.6,0-1-0.4-1-1.1v-1.4h0.8V39
		c0,0.2,0,0.3,0,0.4c0,0,0.1,0.1,0.3,0.1h0.5c0.1,0,0.2,0,0.3-0.1C38,39.4,38,39.3,38,39.1z"/>
	<path fill="#FFFFFF" d="M44,31.5v0.9h-1.2v8H42v-8h-1.2v-0.9H44z"/>
</g>
</svg>
