<?xml version="1.0" encoding="utf-8"?>
<!-- Generator: Adobe Illustrator 18.0.0, SVG Export Plug-In . SVG Version: 6.00 Build 0)  -->
<!DOCTYPE svg PUBLIC "-//W3C//DTD SVG 1.1//EN" "http://www.w3.org/Graphics/SVG/1.1/DTD/svg11.dtd">
<svg version="1.1" xmlns="http://www.w3.org/2000/svg" xmlns:xlink="http://www.w3.org/1999/xlink" x="0px" y="0px"
	 viewBox="0 0 321 321" enable-background="new 0 0 321 321" xml:space="preserve">
<g id="Camada_1">
	<circle fill="#404041" cx="160.5" cy="160.5" r="160.5"/>
</g>
<g id="Camada_2">
	<g>
		<g>
			<path fill="#FFFFFF" d="M164.5,177.6c2.7,1.9,6.5,3.2,10.7,3.2c5.7,0,11-3.4,11-9.5c0-3.8-2.2-6.5-7.4-9.5
				c-6.5-3.5-10.1-7.5-10.1-13c0-9,7.8-14.9,17.1-14.9c4.9,0,8.6,1.5,10.4,2.7l-2.3,5c-1.6-0.9-4.7-2.4-8.8-2.3
				c-6.2,0-10,4.1-10,8.3c0,4.1,2.6,6.5,7.8,9.4c6.2,3.3,9.7,7.3,9.7,13.5c0,8.8-6.9,15.6-18.2,15.6c-5.1,0-10.1-1.7-12.2-3.5
				L164.5,177.6z"/>
			<path fill="#FFFFFF" d="M195,185.4l7-36.3h6.2l-7,36.3H195z M203.1,138.9c0-2.4,1.9-4.2,4.1-4.2c2.3,0,3.7,1.7,3.7,3.9
				c-0.1,2.5-1.8,4.2-4.2,4.2C204.5,142.8,203.1,141.1,203.1,138.9z"/>
			<path fill="#FFFFFF" d="M226.6,139.3l-1.9,9.8h8.7l-1,4.9h-8.7l-3.4,17.6c-0.4,2-0.7,3.9-0.7,5.9c0,2.2,1,3.5,3.5,3.5
				c1,0,2.1-0.1,2.9-0.2l-0.3,4.9c-1.1,0.4-3,0.7-4.8,0.7c-5.6,0-7.7-3.4-7.7-7.1c0-2.1,0.2-4.2,0.7-6.8l3.6-18.4h-5.3l1-4.9h5.2
				l1.6-8.2L226.6,139.3z"/>
			<path fill="#FFFFFF" d="M256.3,183.3c-2.7,1.6-7.1,2.9-12,2.9c-9.6,0-13.8-6.5-13.8-14.6c0-11,8.1-23.3,19.8-23.3
				c6.9,0,10.7,4.1,10.7,9.3c0,9.5-10.7,12.1-24.2,11.9c-0.3,1.6-0.1,5,0.8,6.9c1.4,3.2,4.4,4.9,8.1,4.9c4.3,0,7.5-1.3,9.8-2.6
				L256.3,183.3z M249.4,153.1c-5.9,0-10.4,5.8-11.9,11.5c9.8,0.1,17.4-1.2,17.4-6.8C254.9,154.7,252.7,153.1,249.4,153.1z"/>
			<path fill="#FFFFFF" d="M262.5,179.1c1.7,1.1,4.9,2.2,7.8,2.2c4.2,0,6.9-2.7,6.9-5.9c0-2.9-1.3-4.6-5-6.7
				c-4.2-2.3-6.5-5.6-6.5-9.2c0-6.4,5.5-11.3,13.1-11.3c3.3,0,6.2,0.9,7.6,1.8l-1.7,4.7c-1.3-0.7-3.6-1.7-6.3-1.7
				c-3.8,0-6.5,2.3-6.5,5.5c0,2.6,1.7,4.3,5,6.1c4.1,2.3,6.8,5.5,6.8,9.5c0,7.7-6.2,11.9-13.9,11.9c-3.9,0-7.4-1.2-9-2.5
				L262.5,179.1z"/>
		</g>
		<g>
			<path fill="#C3265D" d="M84.1,184.9c-5.1,1.5-13.1,3.5-21.1,3.5c-7.5,0-14.6-1.8-19.9-5.6c-5-3.6-8.5-10-8.5-18.5
				c0-10.4,4.5-18.4,11.8-23.8c6.9-5.2,16.3-7.9,26.9-7.9c8,0,14.5,1.5,17,2.7l-4.1,12c-2.7-1.1-7.8-2.5-13.5-2.5
				c-5.4,0-10.4,1.2-14,3.5c-4.8,3.1-7.9,8.3-7.9,14.8c0,9.5,6.6,13.2,15,13.2c3,0,4.6-0.4,5.8-0.9l1.7-8.7h-8.5l2.3-11.4h22.8
				L84.1,184.9z"/>
			<path fill="#C3265D" d="M110.5,188.8c-14.8,0-25.6-9.1-25.6-24.7c0-9.5,3.6-17.5,9.5-23.1c5.9-5.6,14-8.8,23.3-8.8
				c14.9,0,25.5,8.8,25.5,24.9c0,9.4-3.4,17.4-9.2,23C128.2,185.6,120.1,188.8,110.5,188.8L110.5,188.8z M112.6,177
				c3.6,0,6.8-1.5,9.3-4.1c3.6-3.6,5.7-9.2,5.7-14.9c0-7.9-3.1-14-11.6-14c-3.8,0-7.1,1.6-9.7,4.2c-3.7,3.7-5.8,9.4-5.8,14.9
				C100.5,171.9,104.7,177,112.6,177L112.6,177z"/>
			<path fill="#C3265D" d="M148.4,188.8c-4.5,0-7.7-3.2-7.7-7.6c0-5.4,3.8-9.7,9.6-9.7c4.5,0,7.9,3.2,7.9,7.9
				C158.2,184.9,154.2,188.8,148.4,188.8L148.4,188.8z M146.1,168.9l4.5-35.8h15.2l-9.1,35.8H146.1z"/>
		</g>
	</g>
</g>
</svg>
