<?xml version="1.0" encoding="utf-8"?>
<!-- Generator: Adobe Illustrator 18.0.0, SVG Export Plug-In . SVG Version: 6.00 Build 0)  -->
<!DOCTYPE svg PUBLIC "-//W3C//DTD SVG 1.1//EN" "http://www.w3.org/Graphics/SVG/1.1/DTD/svg11.dtd">
<svg version="1.1" id="Camada_1" xmlns="http://www.w3.org/2000/svg" xmlns:xlink="http://www.w3.org/1999/xlink" x="0px" y="0px"
	 viewBox="0 0 261 17" enable-background="new 0 0 261 17" xml:space="preserve">
<path fill-rule="evenodd" clip-rule="evenodd" fill="#FFFFFF" d="M3,0C88,0,173,0,258.1,0c1.6,0,3,1.3,3,2.8
	c-0.2,3.7-1.2,7.4-6.3,11.2c-2.1,1.5-5.8,2.8-7.2,2.8c-74.6,0-159.4,0-234.1,0.2c-1.4,0-5.1-1.3-7.2-2.9c-5-3.8-6-7.6-6.2-11.3
	C-0.1,1.2,1.3,0,3,0L3,0z"/>
<path fill-rule="evenodd" clip-rule="evenodd" fill="#FFFFFF" d="M0,0h261v3H0V0z"/>
</svg>
